<mxfile host="65bd71144e">
    <diagram id="OM4VQhm420sR5aDwppGz" name="Page-1">
        <mxGraphModel dx="614" dy="614" grid="1" gridSize="10" guides="1" tooltips="1" connect="1" arrows="1" fold="1" page="1" pageScale="1" pageWidth="850" pageHeight="1100" math="0" shadow="0">
            <root>
                <mxCell id="0"/>
                <mxCell id="1" parent="0"/>
                <mxCell id="14" style="edgeStyle=orthogonalEdgeStyle;rounded=0;html=1;exitX=0;exitY=0;exitDx=60;exitDy=30;exitPerimeter=0;entryX=0;entryY=0;entryDx=0;entryDy=30;entryPerimeter=0;endArrow=none;endFill=0;" edge="1" parent="1" source="2" target="4">
                    <mxGeometry relative="1" as="geometry"/>
                </mxCell>
                <mxCell id="18" style="edgeStyle=orthogonalEdgeStyle;rounded=0;html=1;exitX=0;exitY=0;exitDx=0;exitDy=30;exitPerimeter=0;endArrow=none;endFill=0;" edge="1" parent="1" source="2">
                    <mxGeometry relative="1" as="geometry">
                        <mxPoint x="240" y="240.16666666666674" as="targetPoint"/>
                    </mxGeometry>
                </mxCell>
                <mxCell id="2" value="×" style="shadow=0;dashed=0;align=center;strokeWidth=1;shape=mxgraph.rtl.abstract.entity;container=0;collapsible=0;kind=combinational;drawPins=1;left=%3Ai;right=:o;bottom=%3Ai;top=0;bottomAnchor=middle;topRot=270;topAnchor=middle;bottomRot=90;leftAnchor=left;leftRot=0;rightAnchor=right;rightRot=180;fontSize=40;spacingTop=-10;spacingLeft=2;editable=1;resizable=1;movable=1;rotatable=1;deletable=1;connectable=1;" vertex="1" parent="1">
                    <mxGeometry x="290" y="210" width="60" height="60" as="geometry"/>
                </mxCell>
                <mxCell id="13" style="edgeStyle=orthogonalEdgeStyle;rounded=0;html=1;exitX=0;exitY=0;exitDx=60;exitDy=30;exitPerimeter=0;entryX=0;entryY=0;entryDx=0;entryDy=30;entryPerimeter=0;endArrow=none;endFill=0;" edge="1" parent="1" source="3" target="5">
                    <mxGeometry relative="1" as="geometry"/>
                </mxCell>
                <mxCell id="19" style="edgeStyle=orthogonalEdgeStyle;rounded=0;html=1;exitX=0;exitY=0;exitDx=0;exitDy=30;exitPerimeter=0;endArrow=none;endFill=0;" edge="1" parent="1" source="3">
                    <mxGeometry relative="1" as="geometry">
                        <mxPoint x="240" y="480.16666666666674" as="targetPoint"/>
                    </mxGeometry>
                </mxCell>
                <mxCell id="3" value="×" style="shadow=0;dashed=0;align=center;strokeWidth=1;shape=mxgraph.rtl.abstract.entity;container=0;collapsible=0;kind=combinational;drawPins=1;left=%3Ai;right=:o;bottom=0;top=1;bottomAnchor=middle;topRot=270;topAnchor=middle;bottomRot=90;leftAnchor=left;leftRot=0;rightAnchor=right;rightRot=180;fontSize=40;spacingTop=-10;spacingLeft=2;editable=1;resizable=1;movable=1;rotatable=1;deletable=1;connectable=1;topArr=%3Ai;" vertex="1" parent="1">
                    <mxGeometry x="290" y="450" width="60" height="60" as="geometry"/>
                </mxCell>
                <mxCell id="11" style="html=1;exitX=0;exitY=0;exitDx=60;exitDy=30;exitPerimeter=0;entryX=0;entryY=0;entryDx=0;entryDy=20;entryPerimeter=0;edgeStyle=orthogonalEdgeStyle;rounded=0;endArrow=none;endFill=0;" edge="1" parent="1" source="4" target="10">
                    <mxGeometry relative="1" as="geometry">
                        <Array as="points">
                            <mxPoint x="600" y="240"/>
                            <mxPoint x="600" y="350"/>
                        </Array>
                    </mxGeometry>
                </mxCell>
                <mxCell id="4" value="Filtro&lt;span style=&quot;color: rgba(0, 0, 0, 0); font-family: monospace; font-size: 0px; text-align: start;&quot;&gt;%3CmxGraphModel%3E%3Croot%3E%3CmxCell%20id%3D%220%22%2F%3E%3CmxCell%20id%3D%221%22%20parent%3D%220%22%2F%3E%3CmxCell%20id%3D%222%22%20value%3D%22%C3%97%22%20style%3D%22shadow%3D0%3Bdashed%3D0%3Balign%3Dcenter%3BstrokeWidth%3D1%3Bshape%3Dmxgraph.rtl.abstract.entity%3Bcontainer%3D0%3Bcollapsible%3D0%3Bkind%3Dcombinational%3BdrawPins%3D1%3Bleft%3D%253Ai%3Bright%3D%3Ao%3Bbottom%3D%253Ai%3Btop%3D0%3BbottomAnchor%3Dmiddle%3BtopRot%3D270%3BtopAnchor%3Dmiddle%3BbottomRot%3D90%3BleftAnchor%3Dleft%3BleftRot%3D0%3BrightAnchor%3Dright%3BrightRot%3D180%3BfontSize%3D40%3BspacingTop%3D-10%3BspacingLeft%3D2%3Beditable%3D1%3Bresizable%3D1%3Bmovable%3D1%3Brotatable%3D1%3Bdeletable%3D1%3Bconnectable%3D1%3B%22%20vertex%3D%221%22%20parent%3D%221%22%3E%3CmxGeometry%20x%3D%22170%22%20y%3D%22330%22%20width%3D%2260%22%20height%3D%2260%22%20as%3D%22geometry%22%2F%3E%3C%2FmxCell%3E%3C%2Froot%3E%3C%2FmxGraphModel%3E&lt;/span&gt;" style="shadow=0;dashed=0;align=center;html=1;strokeWidth=1;shape=mxgraph.rtl.abstract.entity;container=1;collapsible=0;kind=sequential;drawPins=0;left=1;right=1;bottom=0;top=0;rightArr=,;" vertex="1" parent="1">
                    <mxGeometry x="400" y="210" width="60" height="60" as="geometry"/>
                </mxCell>
                <mxCell id="12" style="edgeStyle=orthogonalEdgeStyle;rounded=0;html=1;exitX=0;exitY=0;exitDx=60;exitDy=30;exitPerimeter=0;entryX=0;entryY=0;entryDx=0;entryDy=40;entryPerimeter=0;endArrow=none;endFill=0;" edge="1" parent="1" source="5" target="10">
                    <mxGeometry relative="1" as="geometry">
                        <Array as="points">
                            <mxPoint x="600" y="480"/>
                            <mxPoint x="600" y="370"/>
                        </Array>
                    </mxGeometry>
                </mxCell>
                <mxCell id="5" value="Filtro&lt;span style=&quot;color: rgba(0, 0, 0, 0); font-family: monospace; font-size: 0px; text-align: start;&quot;&gt;%3CmxGraphModel%3E%3Croot%3E%3CmxCell%20id%3D%220%22%2F%3E%3CmxCell%20id%3D%221%22%20parent%3D%220%22%2F%3E%3CmxCell%20id%3D%222%22%20value%3D%22%C3%97%22%20style%3D%22shadow%3D0%3Bdashed%3D0%3Balign%3Dcenter%3BstrokeWidth%3D1%3Bshape%3Dmxgraph.rtl.abstract.entity%3Bcontainer%3D0%3Bcollapsible%3D0%3Bkind%3Dcombinational%3BdrawPins%3D1%3Bleft%3D%253Ai%3Bright%3D%3Ao%3Bbottom%3D%253Ai%3Btop%3D0%3BbottomAnchor%3Dmiddle%3BtopRot%3D270%3BtopAnchor%3Dmiddle%3BbottomRot%3D90%3BleftAnchor%3Dleft%3BleftRot%3D0%3BrightAnchor%3Dright%3BrightRot%3D180%3BfontSize%3D40%3BspacingTop%3D-10%3BspacingLeft%3D2%3Beditable%3D1%3Bresizable%3D1%3Bmovable%3D1%3Brotatable%3D1%3Bdeletable%3D1%3Bconnectable%3D1%3B%22%20vertex%3D%221%22%20parent%3D%221%22%3E%3CmxGeometry%20x%3D%22170%22%20y%3D%22330%22%20width%3D%2260%22%20height%3D%2260%22%20as%3D%22geometry%22%2F%3E%3C%2FmxCell%3E%3C%2Froot%3E%3C%2FmxGraphModel%3E&lt;/span&gt;" style="shadow=0;dashed=0;align=center;html=1;strokeWidth=1;shape=mxgraph.rtl.abstract.entity;container=1;collapsible=0;kind=sequential;drawPins=0;left=1;right=1;bottom=0;top=0;rightArr=,;" vertex="1" parent="1">
                    <mxGeometry x="400" y="450" width="60" height="60" as="geometry"/>
                </mxCell>
                <mxCell id="16" style="edgeStyle=orthogonalEdgeStyle;rounded=0;html=1;exitX=0;exitY=0;exitDx=30;exitDy=0;exitPerimeter=0;entryX=0;entryY=0;entryDx=30;entryDy=60;entryPerimeter=0;endArrow=none;endFill=0;" edge="1" parent="1" source="8" target="2">
                    <mxGeometry relative="1" as="geometry"/>
                </mxCell>
                <mxCell id="8" value="×" style="shadow=0;dashed=0;align=center;strokeWidth=1;shape=mxgraph.rtl.abstract.entity;container=0;collapsible=0;kind=combinational;drawPins=1;left=0;right=0;bottom=0;top=1;bottomAnchor=middle;topRot=270;topAnchor=middle;bottomRot=90;leftAnchor=left;leftRot=0;rightAnchor=right;rightRot=180;fontSize=40;spacingTop=-10;spacingLeft=2;editable=1;resizable=1;movable=1;rotatable=1;deletable=1;connectable=1;" vertex="1" parent="1">
                    <mxGeometry x="290" y="290" width="60" height="60" as="geometry"/>
                </mxCell>
                <mxCell id="15" style="edgeStyle=orthogonalEdgeStyle;rounded=0;html=1;exitX=0;exitY=0;exitDx=30;exitDy=60;exitPerimeter=0;entryX=0;entryY=0;entryDx=30;entryDy=0;entryPerimeter=0;endArrow=none;endFill=0;" edge="1" parent="1" source="9" target="3">
                    <mxGeometry relative="1" as="geometry"/>
                </mxCell>
                <mxCell id="9" value="×" style="shadow=0;dashed=0;align=center;strokeWidth=1;shape=mxgraph.rtl.abstract.entity;container=0;collapsible=0;kind=combinational;drawPins=1;left=0;right=0;bottom=1;top=0;bottomAnchor=middle;topRot=270;topAnchor=middle;bottomRot=90;leftAnchor=left;leftRot=0;rightAnchor=right;rightRot=180;fontSize=40;spacingTop=-10;spacingLeft=2;editable=1;resizable=1;movable=1;rotatable=1;deletable=1;connectable=1;leftArr=,,;" vertex="1" parent="1">
                    <mxGeometry x="290" y="370" width="60" height="60" as="geometry"/>
                </mxCell>
                <mxCell id="17" style="edgeStyle=orthogonalEdgeStyle;rounded=0;html=1;exitX=0;exitY=0;exitDx=50;exitDy=30;exitPerimeter=0;endArrow=none;endFill=0;" edge="1" parent="1" source="10">
                    <mxGeometry relative="1" as="geometry">
                        <mxPoint x="750" y="360.16666666666674" as="targetPoint"/>
                    </mxGeometry>
                </mxCell>
                <mxCell id="10" value="" style="shadow=0;dashed=0;align=center;html=1;strokeWidth=1;shape=mxgraph.rtl.abstract.entity;container=1;collapsible=0;kind=sequential;drawPins=0;left=2;right=1;bottom=0;top=0;rightArr=z;leftArr=re,im;" vertex="1" parent="1">
                    <mxGeometry x="640" y="330" width="50" height="60" as="geometry"/>
                </mxCell>
            </root>
        </mxGraphModel>
    </diagram>
</mxfile>